<svg width="13" height="16" viewBox="0 0 13 16" fill="none" xmlns="http://www.w3.org/2000/svg">
<g id="Vector">
<path id="Vector_2" fill-rule="evenodd" clip-rule="evenodd" d="M2.4741 7.90647C5.77865 5.60011 9.00849 3.34873 12.1636 1.15434C12.3288 1.03353 12.4209 0.873186 12.4209 0.706459C12.4209 0.539732 12.3288 0.379384 12.1636 0.258583C11.7168 -0.0873215 11.0099 -0.0573297 10.6881 0.178605C7.418 2.45998 3.99707 4.84432 0.425281 7.33263C0.142239 7.49458 0 7.68653 0 7.90647C0 8.12741 0.142239 8.32436 0.425281 8.49831L11.1766 15.8023C11.3828 15.9343 11.6549 16.0051 11.935 15.9997C12.2151 15.9943 12.4812 15.9131 12.6765 15.7733C13.1909 15.4144 12.9926 15.0605 12.7599 14.8925C9.3259 12.5674 5.89826 10.2387 2.4741 7.90647Z" fill="black"/>
</g>
</svg>
