<svg width="23" height="26" viewBox="0 0 23 26" fill="none" xmlns="http://www.w3.org/2000/svg">
<path id="Vector" d="M2.3 8.85201C2.3 6.50431 3.26928 4.25277 4.99462 2.5927C6.71995 0.932621 9.06001 0 11.5 0C13.94 0 16.28 0.932621 18.0054 2.5927C19.7307 4.25277 20.7 6.50431 20.7 8.85201V14.0493L23 17.3688V22.13H16.5473C16.2858 23.2296 15.6441 24.2112 14.7273 24.9142C13.8105 25.6172 12.6729 26 11.5006 26C10.3282 26 9.19063 25.6172 8.27384 24.9142C7.35705 24.2112 6.71538 23.2296 6.4538 22.13H0V17.3688L2.3 14.0493V8.85201ZM8.8642 22.13C9.08774 22.6238 9.45622 23.0441 9.92444 23.3392C10.3927 23.6344 10.9402 23.7916 11.5 23.7916C12.0598 23.7916 12.6073 23.6344 13.0756 23.3392C13.5438 23.0441 13.9123 22.6238 14.1358 22.13H8.8642ZM11.5 2.213C9.67001 2.213 7.91496 2.91247 6.62096 4.15753C5.32696 5.40258 4.6 7.09124 4.6 8.85201V14.7198L2.3 18.0393V19.917H20.7V18.0393L18.4 14.7198V8.85201C18.4 7.09124 17.673 5.40258 16.379 4.15753C15.085 2.91247 13.33 2.213 11.5 2.213Z" fill="black"/>
</svg>
