<svg width="21" height="37" viewBox="0 0 21 37" fill="none" xmlns="http://www.w3.org/2000/svg">
<path id="Vector" d="M3.5 0C2.57174 0 1.68151 0.417638 1.02513 1.16104C0.368751 1.90444 1.86818e-06 2.91271 1.86818e-06 3.96403V35.6763C-0.000411517 35.938 0.0677882 36.1939 0.195955 36.4116C0.324121 36.6294 0.506483 36.7991 0.719921 36.8993C0.933359 36.9995 1.16826 37.0257 1.39485 36.9745C1.62143 36.9233 1.8295 36.7971 1.99267 36.6118L10.5 26.9739L19.0073 36.6118C19.1705 36.7971 19.3786 36.9233 19.6052 36.9745C19.8317 37.0257 20.0666 36.9995 20.2801 36.8993C20.4935 36.7991 20.6759 36.6294 20.804 36.4116C20.9322 36.1939 21.0004 35.938 21 35.6763V3.96403C21 3.44347 20.9095 2.928 20.7336 2.44706C20.5577 1.96612 20.2999 1.52913 19.9749 1.16104C19.6499 0.792944 19.264 0.500955 18.8394 0.301744C18.4148 0.102533 17.9596 0 17.5 0L3.5 0Z" fill="#AFAFAF"/>
</svg>
