<svg width="45" height="38" viewBox="0 0 45 38" fill="none" xmlns="http://www.w3.org/2000/svg">
<g id="Group">
<path id="Vector" d="M3 31V13C3 11.9391 3.45655 10.9217 4.2692 10.1716C5.08186 9.42143 6.18406 9 7.33333 9H9.34833C10.0616 9.0001 10.7638 8.83769 11.3927 8.52718C12.0217 8.21667 12.5578 7.76766 12.9537 7.22L14.713 4.78C15.1088 4.23234 15.645 3.78333 16.2739 3.47282C16.9029 3.16231 17.6051 2.9999 18.3183 3H26.6817C27.3949 2.9999 28.0971 3.16231 28.7261 3.47282C29.355 3.78333 29.8912 4.23234 30.287 4.78L32.0463 7.22C32.4422 7.76766 32.9783 8.21667 33.6073 8.52718C34.2362 8.83769 34.9384 9.0001 35.6517 9H37.6667C38.8159 9 39.9181 9.42143 40.7308 10.1716C41.5435 10.9217 42 11.9391 42 13V31C42 32.0609 41.5435 33.0783 40.7308 33.8284C39.9181 34.5786 38.8159 35 37.6667 35H7.33333C6.18406 35 5.08186 34.5786 4.2692 33.8284C3.45655 33.0783 3 32.0609 3 31Z" stroke="#C5C5C5" stroke-width="5" stroke-linecap="round" stroke-linejoin="round"/>
<path id="Vector_2" d="M22.5124 27.0811C26.1045 27.0811 29.0164 24.3857 29.0164 21.0608C29.0164 17.7359 26.1045 15.0405 22.5124 15.0405C18.9203 15.0405 16.0083 17.7359 16.0083 21.0608C16.0083 24.3857 18.9203 27.0811 22.5124 27.0811Z" stroke="#C5C5C5" stroke-width="5" stroke-linecap="round" stroke-linejoin="round"/>
</g>
</svg>
