<svg width="36" height="36" viewBox="0 0 36 36" fill="none" xmlns="http://www.w3.org/2000/svg">
<g id="Frame 14966">
<path id="Vector" d="M21.8438 26.625H24C24.6962 26.625 25.3639 26.3484 25.8562 25.8562C26.3484 25.3639 26.625 24.6962 26.625 24V21.8438M26.625 13.7812V11.625C26.625 10.9288 26.3484 10.2611 25.8562 9.76884C25.3639 9.27656 24.6962 9 24 9H21.8438M13.7812 26.625H11.625C10.9288 26.625 10.2611 26.3484 9.76884 25.8562C9.27656 25.3639 9 24.6962 9 24V21.8438M9 13.7812V11.625C9 10.9288 9.27656 10.2611 9.76884 9.76884C10.2611 9.27656 10.9288 9 11.625 9H13.7812" stroke="white" stroke-width="2" stroke-linecap="round" stroke-linejoin="round"/>
</g>
</svg>
