<svg width="20" height="20" viewBox="0 0 20 20" fill="none" xmlns="http://www.w3.org/2000/svg">
<path id="Vector" d="M3.61111 0C2.65338 0 1.73488 0.380455 1.05767 1.05767C0.380455 1.73488 0 2.65338 0 3.61111V16.3889C0 17.3466 0.380455 18.2651 1.05767 18.9423C1.73488 19.6195 2.65338 20 3.61111 20H16.3889C17.3466 20 18.2651 19.6195 18.9423 18.9423C19.6195 18.2651 20 17.3466 20 16.3889V3.61111C20 2.65338 19.6195 1.73488 18.9423 1.05767C18.2651 0.380455 17.3466 0 16.3889 0H3.61111ZM1.66667 3.61111C1.66667 2.53778 2.53778 1.66667 3.61111 1.66667H16.3889C17.4622 1.66667 18.3333 2.53778 18.3333 3.61111V16.3889C18.3333 16.9046 18.1285 17.3992 17.7638 17.7638C17.3992 18.1285 16.9046 18.3333 16.3889 18.3333H3.61111C3.09541 18.3333 2.60084 18.1285 2.23618 17.7638C1.87153 17.3992 1.66667 16.9046 1.66667 16.3889V3.61111ZM15.8667 6.97778C15.9485 6.90149 16.0142 6.80949 16.0598 6.70726C16.1053 6.60504 16.1298 6.49469 16.1318 6.3828C16.1337 6.27091 16.1132 6.15977 16.0712 6.056C16.0293 5.95224 15.967 5.85798 15.8878 5.77885C15.8087 5.69972 15.7144 5.63733 15.6107 5.59542C15.5069 5.55351 15.3958 5.53292 15.2839 5.5349C15.172 5.53687 15.0616 5.56136 14.9594 5.60691C14.8572 5.65246 14.7652 5.71813 14.6889 5.8L7.77444 12.7067L5.31111 10.2444C5.15314 10.0972 4.9442 10.0171 4.72831 10.0209C4.51242 10.0247 4.30643 10.1122 4.15375 10.2649C4.00107 10.4175 3.91361 10.6235 3.90981 10.8394C3.906 11.0553 3.98613 11.2643 4.13333 11.4222L7.18333 14.4733C7.33958 14.6294 7.55139 14.717 7.77222 14.717C7.99306 14.717 8.20486 14.6294 8.36111 14.4733L15.8667 6.97778Z" fill="black"/>
</svg>
