<svg width="20" height="20" viewBox="0 0 20 20" fill="none" xmlns="http://www.w3.org/2000/svg">
<path id="Vector" fill-rule="evenodd" clip-rule="evenodd" d="M17.6923 1.53846H2.30769C2.10368 1.53846 1.90802 1.61951 1.76376 1.76376C1.61951 1.90802 1.53846 2.10368 1.53846 2.30769V17.6923C1.53846 17.8963 1.61951 18.092 1.76376 18.2362C1.90802 18.3805 2.10368 18.4615 2.30769 18.4615H17.6923C17.8963 18.4615 18.092 18.3805 18.2362 18.2362C18.3805 18.092 18.4615 17.8963 18.4615 17.6923V2.30769C18.4615 2.10368 18.3805 1.90802 18.2362 1.76376C18.092 1.61951 17.8963 1.53846 17.6923 1.53846ZM2.30769 0C1.69565 0 1.10868 0.243131 0.675907 0.675907C0.243131 1.10868 0 1.69565 0 2.30769V17.6923C0 18.3043 0.243131 18.8913 0.675907 19.3241C1.10868 19.7569 1.69565 20 2.30769 20H17.6923C18.3043 20 18.8913 19.7569 19.3241 19.3241C19.7569 18.8913 20 18.3043 20 17.6923V2.30769C20 1.69565 19.7569 1.10868 19.3241 0.675907C18.8913 0.243131 18.3043 0 17.6923 0H2.30769Z" fill="black"/>
</svg>
