<svg width="24" height="24" viewBox="0 0 24 24" fill="none" xmlns="http://www.w3.org/2000/svg">
<g id="Frame 14903" clip-path="url(#clip0_584_1740)">
<path id="Vector" d="M22.5 0H1.5C0.675375 0 0 0.800267 0 1.77738V22.2226C0 23.1997 0.675375 24 1.5 24H22.5C23.3246 24 24 23.1997 24 22.2226V1.77738C24 0.800267 23.3246 0 22.5 0ZM22.5 22.2226L1.50002 22.2226V16.986L7.5199 10.0733L13.7258 17.4188C13.9815 17.7867 14.4368 17.7401 14.76 17.4499L17.4994 14.5114L22.44 20.5208C22.4588 20.543 22.4797 20.5594 22.5 20.5785L22.5 22.2226ZM22.5 18.0484L18.093 12.7047C17.8257 12.3924 17.4068 12.3604 17.1101 12.6283L14.2845 15.545L8.07492 8.26661C8.00955 8.17273 7.92864 8.09572 7.83719 8.04031C7.74574 7.98491 7.64567 7.95228 7.54317 7.94446C7.33655 7.93557 7.1329 8.01555 6.9814 8.18396L1.50002 14.5048V1.77738H22.5V18.0484ZM17.25 8.89313C18.0769 8.89313 18.7463 8.09864 18.7463 7.1202C18.7463 6.14216 18.0769 5.34767 17.25 5.34767C16.4232 5.34767 15.7538 6.14216 15.7538 7.12017C15.7538 8.09864 16.4232 8.89313 17.25 8.89313Z" fill="#3873EA"/>
</g>
<defs>
<clipPath id="clip0_584_1740">
<rect width="24" height="24" fill="white"/>
</clipPath>
</defs>
</svg>
