<svg width="43" height="38" viewBox="0 0 43 38" fill="none" xmlns="http://www.w3.org/2000/svg">
<g id="Group 14191">
<path id="Vector" d="M32.3333 2H4.16667C2.97005 2 2 2.84569 2 3.88889V28.4445C2 29.4877 2.97005 30.3334 4.16667 30.3334H32.3333C33.53 30.3334 34.5 29.4877 34.5 28.4445V3.88889C34.5 2.84569 33.53 2 32.3333 2Z" stroke="#C5C5C5" stroke-width="4" stroke-linejoin="round"/>
<path id="Vector_2" d="M41 7.6665V33.1665C41 33.918 40.6576 34.6386 40.0481 35.17C39.4386 35.7014 38.612 35.9999 37.75 35.9999H8.5M2 19.9443L10.294 13.5164C10.6937 13.2067 11.2107 13.0368 11.7455 13.0394C12.2803 13.042 12.7951 13.2169 13.1908 13.5306L23.6667 21.8332" stroke="#C5C5C5" stroke-width="4" stroke-linecap="round" stroke-linejoin="round"/>
<path id="Vector_3" d="M19.3333 18.0558L24.5171 14.2893C24.8919 14.0172 25.361 13.8633 25.8486 13.8525C26.3361 13.8417 26.8136 13.9747 27.2038 14.2298L34.5 19.0002M2 14.278V21.8336M34.5 14.278V21.8336" stroke="#C5C5C5" stroke-width="4" stroke-linecap="round" stroke-linejoin="round"/>
</g>
</svg>
