<svg width="22" height="22" viewBox="0 0 22 22" fill="none" xmlns="http://www.w3.org/2000/svg">
<path id="Vector" d="M20.6042 1.4149C19.3876 0.192336 17.6695 0 15.641 0H6.33509C4.33097 0 2.61294 0.191825 1.39581 1.4149C0.179185 2.63746 0 4.35212 0 6.35426V15.6099C0 17.6602 0.178676 19.3625 1.39581 20.5851C2.61243 21.8077 4.33097 22 6.37072 22H15.641C17.6695 22 19.3876 21.8082 20.6042 20.5851C21.8213 19.3625 22 17.6602 22 15.6099V6.39007C22 4.33984 21.8213 2.62519 20.6042 1.4149ZM20.0794 6.0545V15.9337C20.0794 17.1803 19.9241 18.451 19.2089 19.1825C18.481 19.9017 17.192 20.0695 15.9632 20.0695H6.03679C4.80795 20.0695 3.51955 19.9017 2.80383 19.1825C2.07589 18.451 1.92063 17.1803 1.92063 15.9332V6.09082C1.92063 4.83245 2.07589 3.53725 2.79161 2.81803C3.51955 2.08654 4.81966 1.93104 6.07242 1.93104H15.9632C17.192 1.93104 18.4804 2.09882 19.2084 2.81803C19.9241 3.54953 20.0794 4.81966 20.0794 6.0545ZM11 17.3962C11.4775 17.3962 11.8593 17.0243 11.8593 16.545V11.8573H16.5242C17.0012 11.8573 17.3829 11.4496 17.3829 11.0061C17.3829 10.5386 17.0012 10.1427 16.5242 10.1427H11.8593V5.44322C11.8593 4.9634 11.4775 4.59203 11 4.59203C10.8883 4.59037 10.7774 4.61126 10.6739 4.65345C10.5704 4.69564 10.4764 4.75828 10.3974 4.83765C10.3184 4.91702 10.2561 5.01152 10.2141 5.11554C10.1721 5.21955 10.1513 5.33098 10.1529 5.44322V10.1427H5.48804C5.01055 10.1427 4.62877 10.5386 4.62877 11.0061C4.62877 11.4496 5.01055 11.8573 5.48804 11.8573H10.1529V16.545C10.1529 17.0243 10.523 17.3962 11 17.3962Z" fill="black"/>
</svg>
