<svg width="30" height="30" viewBox="0 0 30 30" fill="none" xmlns="http://www.w3.org/2000/svg">
<g id="simple-line-icons:location-pin" clip-path="url(#clip0_584_1734)">
<path id="Vector" d="M15.1073 -0.0107422C8.95781 -0.0107422 3.75 5.2266 3.75 11.431C3.75 17.9279 9.78609 24.5719 13.8464 29.2416C13.8619 29.2604 14.5182 29.9893 15.3267 29.9893H15.3985C16.2071 29.9893 16.8586 29.2604 16.875 29.2416C20.6855 24.8611 26.25 17.6386 26.25 11.431C26.25 5.2266 22.1878 -0.0107422 15.1073 -0.0107422ZM15.4833 27.9839C15.4505 28.0168 15.4026 28.0534 15.3604 28.0838C15.3173 28.0543 15.2704 28.0168 15.2358 27.984L14.7454 27.4201C10.8961 23.0039 5.625 16.9566 5.625 11.431C5.625 6.2452 9.9675 1.86379 15.1073 1.86379C21.5095 1.86379 24.375 6.66848 24.375 11.431C24.375 15.6258 21.383 21.1955 15.4833 27.9839ZM15.0328 5.66629C11.9264 5.66629 9.40778 8.18488 9.40778 11.2913C9.40778 14.3977 11.9264 16.9163 15.0328 16.9163C18.1392 16.9163 20.6578 14.3977 20.6578 11.2913C20.6578 8.18488 18.1392 5.66629 15.0328 5.66629ZM15.0328 15.0413C12.9651 15.0413 11.2396 13.3182 11.2396 11.25C11.2396 9.18238 12.922 7.50004 14.9896 7.50004C17.0587 7.50004 18.7396 9.18238 18.7396 11.25C18.7406 13.3182 17.1018 15.0413 15.0328 15.0413Z" fill="#3873EA"/>
</g>
<defs>
<clipPath id="clip0_584_1734">
<rect width="30" height="30" fill="white"/>
</clipPath>
</defs>
</svg>
