<svg width="30" height="30" viewBox="0 0 30 30" fill="none" xmlns="http://www.w3.org/2000/svg">
<g id="prime:minus-circle">
<path id="Vector" d="M15 26.25C12.775 26.25 10.5999 25.5902 8.74984 24.354C6.89979 23.1179 5.45785 21.3609 4.60636 19.3052C3.75487 17.2495 3.53209 14.9875 3.96617 12.8052C4.40025 10.623 5.47171 8.61839 7.04505 7.04505C8.61839 5.47171 10.623 4.40025 12.8052 3.96617C14.9875 3.53209 17.2495 3.75487 19.3052 4.60636C21.3609 5.45785 23.1179 6.89979 24.354 8.74984C25.5902 10.5999 26.25 12.775 26.25 15C26.25 17.9837 25.0647 20.8452 22.955 22.955C20.8452 25.0647 17.9837 26.25 15 26.25ZM15 5.62501C13.1458 5.62501 11.3332 6.17484 9.79153 7.20498C8.24982 8.23512 7.04821 9.69929 6.33863 11.4123C5.62906 13.1254 5.44341 15.0104 5.80514 16.829C6.16688 18.6475 7.05976 20.318 8.37088 21.6291C9.682 22.9402 11.3525 23.8331 13.171 24.1949C14.9896 24.5566 16.8746 24.3709 18.5877 23.6614C20.3007 22.9518 21.7649 21.7502 22.795 20.2085C23.8252 18.6668 24.375 16.8542 24.375 15C24.375 12.5136 23.3873 10.129 21.6291 8.37088C19.871 6.61273 17.4864 5.62501 15 5.62501Z" fill="#808080"/>
<path id="Vector_2" d="M20 15.9375H10C9.75136 15.9375 9.5129 15.8387 9.33709 15.6629C9.16127 15.4871 9.0625 15.2486 9.0625 15C9.0625 14.7514 9.16127 14.5129 9.33709 14.3371C9.5129 14.1613 9.75136 14.0625 10 14.0625H20C20.2486 14.0625 20.4871 14.1613 20.6629 14.3371C20.8387 14.5129 20.9375 14.7514 20.9375 15C20.9375 15.2486 20.8387 15.4871 20.6629 15.6629C20.4871 15.8387 20.2486 15.9375 20 15.9375Z" fill="#808080"/>
</g>
</svg>
