<svg width="15" height="15" viewBox="0 0 15 15" fill="none" xmlns="http://www.w3.org/2000/svg">
<path id="Vector" d="M14.4509 0.549065C14.0993 0.197502 13.6224 0 13.1252 0C12.628 0 12.1511 0.197502 11.7995 0.549065L10.9731 1.3755L13.6245 4.02693L14.4509 3.2005C14.8025 2.84888 15 2.37201 15 1.87478C15 1.37756 14.8025 0.900688 14.4509 0.549065ZM12.8666 4.78479L10.2152 2.13336L1.53661 10.8119C1.09579 11.2526 0.771739 11.7961 0.593755 12.3934L0.0223248 14.3112C-0.00526377 14.4038 -0.00732141 14.5021 0.0163697 14.5957C0.0400608 14.6893 0.0886194 14.7748 0.156907 14.8431C0.225196 14.9114 0.310674 14.9599 0.404297 14.9836C0.49792 15.0073 0.596206 15.0053 0.688755 14.9777L2.60662 14.4062C3.20392 14.2283 3.74745 13.9042 4.18805 13.4634L12.8666 4.78479Z" fill="black"/>
</svg>
