<svg width="28" height="30" viewBox="0 0 28 30" fill="none" xmlns="http://www.w3.org/2000/svg">
<g id="ic:baseline-people-alt">
<path id="Vector" fill-rule="evenodd" clip-rule="evenodd" d="M19.4482 16.4126C21.0466 17.5751 22.1666 19.1501 22.1666 21.2501V25.0001H26.8332V21.2501C26.8332 18.5251 22.6682 16.9126 19.4482 16.4126Z" fill="black"/>
<path id="Vector_2" d="M10.4999 15C13.0772 15 15.1666 12.7614 15.1666 10C15.1666 7.23858 13.0772 5 10.4999 5C7.92259 5 5.83325 7.23858 5.83325 10C5.83325 12.7614 7.92259 15 10.4999 15Z" fill="black"/>
<path id="Vector_3" fill-rule="evenodd" clip-rule="evenodd" d="M17.5001 15C20.0784 15 22.1667 12.7625 22.1667 10C22.1667 7.2375 20.0784 5 17.5001 5C16.9517 5 16.4384 5.125 15.9484 5.3C16.9524 6.63027 17.5 8.28925 17.5 10C17.5 11.7107 16.9524 13.3697 15.9484 14.7C16.4384 14.875 16.9517 15 17.5001 15ZM10.5001 16.25C7.38508 16.25 1.16675 17.925 1.16675 21.25V25H19.8334V21.25C19.8334 17.925 13.6151 16.25 10.5001 16.25Z" fill="black"/>
</g>
</svg>
