<svg width="18" height="18" viewBox="0 0 18 18" fill="none" xmlns="http://www.w3.org/2000/svg">
<g id="octicon:thumbsup-16" clip-path="url(#clip0_1588_4039)">
<path id="Vector" d="M9.93825 0.0742293C10.7966 0.172104 11.6257 0.406104 12.1995 1.06873C12.7676 1.72235 12.9375 2.61898 12.9375 3.65623C12.9375 4.1816 12.8396 4.9151 12.7609 5.49786L12.744 5.62498H14.3438C15.0221 5.62498 15.6645 5.72061 16.2203 5.99961C16.7917 6.28536 17.2451 6.76348 17.4994 7.34961C18.009 8.47235 17.9921 10.1025 17.7109 12.2051L17.6659 12.5494C17.5478 13.4381 17.4465 14.2065 17.3138 14.8365C17.1664 15.5452 16.9594 16.1966 16.5623 16.7175C15.7163 17.8279 14.2942 18 12.375 18C10.296 18 8.73675 17.6254 7.4385 17.2654C7.25325 17.2144 7.07513 17.1645 6.90413 17.1157C6.16388 16.9065 5.55413 16.7332 4.9635 16.6489C4.83357 17.0421 4.58293 17.3844 4.24724 17.627C3.91155 17.8695 3.50791 18.0001 3.09375 18H1.96875C1.44661 18 0.945846 17.7926 0.576634 17.4233C0.207421 17.0541 0 16.5534 0 16.0312L0 7.59373C0 6.50698 0.882 5.62498 1.96875 5.62498H3.09375C3.43871 5.62494 3.77763 5.71555 4.07656 5.88771C4.37548 6.05988 4.62393 6.30758 4.797 6.60598C5.08725 6.48786 5.46075 6.30448 5.82975 6.03448C6.58463 5.48323 7.3125 4.58885 7.3125 3.09373V2.53123C7.3125 1.17898 8.43075 -0.0978957 9.93825 0.0742293ZM5.0625 14.9625C5.85563 15.0615 6.62625 15.282 7.3935 15.5002L7.88963 15.6409C9.12263 15.984 10.5154 16.3136 12.375 16.3136C14.3933 16.3136 14.94 16.0627 15.219 15.696C15.3844 15.4789 15.5295 15.1279 15.6622 14.4922C15.7804 13.9275 15.8737 13.2277 15.9941 12.321L16.0391 11.9835C16.3204 9.86623 16.2518 8.68386 15.9626 8.04936C15.8684 7.81465 15.6915 7.62256 15.4654 7.50936C15.2314 7.39236 14.8804 7.31361 14.3438 7.31361H12.375C11.6032 7.31361 10.9181 6.66448 11.0182 5.81061C11.0452 5.5931 11.0737 5.37335 11.1038 5.15135C11.1769 4.60236 11.25 4.0601 11.25 3.65735C11.25 2.74723 11.088 2.3636 10.926 2.17685C10.7719 1.9991 10.4737 1.83485 9.747 1.7516C9.40162 1.7111 9 2.0171 9 2.53123V3.09373C9 5.25598 7.89975 6.61273 6.82538 7.39685C6.28765 7.78871 5.69315 8.09601 5.0625 8.30811V14.9625ZM3.09375 7.31248H1.96875C1.89416 7.31248 1.82262 7.34211 1.76988 7.39486C1.71713 7.4476 1.6875 7.51914 1.6875 7.59373V16.0312C1.6875 16.1865 1.8135 16.3125 1.96875 16.3125H3.09375C3.16834 16.3125 3.23988 16.2828 3.29262 16.2301C3.34537 16.1774 3.375 16.1058 3.375 16.0312V7.59373C3.375 7.51914 3.34537 7.4476 3.29262 7.39486C3.23988 7.34211 3.16834 7.31248 3.09375 7.31248Z" fill="#AFAFAF"/>
</g>
<defs>
<clipPath id="clip0_1588_4039">
<rect width="18" height="18" fill="white"/>
</clipPath>
</defs>
</svg>
