<svg width="60" height="60" viewBox="0 0 60 60" fill="none" xmlns="http://www.w3.org/2000/svg">
<path id="Vector" d="M30 0C13.4582 0 0 13.4582 0 30C0 46.5418 13.4582 60 30 60C46.5418 60 60 46.5418 60 30C60 13.4582 46.5418 0 30 0ZM26.5385 46.1538H20.1923C18.5098 46.1519 16.8967 45.4827 15.707 44.293C14.5173 43.1033 13.8481 41.4902 13.8462 39.8077V33.4615H18.4615V39.8077C18.4615 40.2667 18.6439 40.707 18.9685 41.0315C19.2931 41.3561 19.7333 41.5385 20.1923 41.5385H26.5385V46.1538ZM26.5385 18.4615H20.1923C19.7333 18.4615 19.2931 18.6439 18.9685 18.9685C18.6439 19.2931 18.4615 19.7333 18.4615 20.1923V26.5385H13.8462V20.1923C13.8481 18.5098 14.5173 16.8967 15.707 15.707C16.8967 14.5173 18.5098 13.8481 20.1923 13.8462H26.5385V18.4615ZM46.1538 39.8077C46.1519 41.4902 45.4827 43.1033 44.293 44.293C43.1033 45.4827 41.4902 46.1519 39.8077 46.1538H33.4615V41.5385H39.8077C40.2667 41.5385 40.707 41.3561 41.0315 41.0315C41.3561 40.707 41.5385 40.2667 41.5385 39.8077V33.4615H46.1538V39.8077ZM46.1538 26.5385H41.5385V20.1923C41.5385 19.7333 41.3561 19.2931 41.0315 18.9685C40.707 18.6439 40.2667 18.4615 39.8077 18.4615H33.4615V13.8462H39.8077C41.4902 13.8481 43.1033 14.5173 44.293 15.707C45.4827 16.8967 46.1519 18.5098 46.1538 20.1923V26.5385Z" fill="#3873EA"/>
</svg>
