<svg width="23" height="24" viewBox="0 0 23 24" fill="none" xmlns="http://www.w3.org/2000/svg">
<path id="Vector" d="M22.1077 2.09715C22.1637 1.85929 22.1529 1.61034 22.0765 1.37813C22.0001 1.14593 21.8612 0.939631 21.6753 0.782318C21.4894 0.625005 21.2638 0.522881 21.0238 0.48737C20.7838 0.451859 20.5388 0.484361 20.3163 0.581241L1.54949 8.77187C1.31674 8.87337 1.11841 9.04102 0.978699 9.25436C0.838992 9.4677 0.763945 9.7175 0.762712 9.9733C0.761478 10.2291 0.834114 10.4798 0.971757 10.6949C1.1094 10.91 1.3061 11.0802 1.53786 11.1846L7.74717 13.9819C8.00673 14.0988 8.29687 14.1272 8.57366 14.063C8.85045 13.9988 9.09883 13.8454 9.28118 13.626L13.1186 9.01402C13.3413 8.74643 13.6604 8.57912 14.0057 8.5489C14.3511 8.51868 14.6943 8.62803 14.9601 8.85289C15.2258 9.07774 15.3922 9.39969 15.4227 9.7479C15.4531 10.0961 15.3451 10.4421 15.1225 10.7097L11.285 15.3216C11.1024 15.5408 10.9957 15.8141 10.9811 16.1002C10.9664 16.3862 11.0446 16.6694 11.2038 16.9069L15.0146 22.5868C15.1567 22.7989 15.3569 22.9648 15.5907 23.0643C15.8246 23.1638 16.082 23.1926 16.3316 23.1471C16.5812 23.1017 16.8121 22.984 16.9963 22.8083C17.1805 22.6327 17.31 22.4068 17.3689 22.1581L22.1077 2.09715Z" fill="#3873EA"/>
</svg>
