<svg width="19" height="19" viewBox="0 0 19 19" fill="none" xmlns="http://www.w3.org/2000/svg">
<path id="Vector" d="M7.47329 19L7.0799 15.9473C6.73288 15.8453 6.35797 15.6856 5.95516 15.4681C5.55163 15.25 5.20823 15.0163 4.92496 14.7672L2.02671 15.9653L0 12.5347L2.50486 10.7002C2.47299 10.5088 2.44654 10.3117 2.42553 10.1091C2.40525 9.90709 2.3951 9.71076 2.3951 9.52006C2.3951 9.34272 2.40525 9.15624 2.42553 8.96061C2.44582 8.76498 2.47226 8.54472 2.50486 8.29983L0 6.46528L2.02671 3.07483L4.90431 4.25389C5.22888 3.99141 5.58025 3.75461 5.95842 3.5435C6.33514 3.33239 6.70209 3.16913 7.05925 3.05372L7.4722 0H11.5267L11.9201 3.07378C12.3367 3.21522 12.7047 3.37813 13.0242 3.5625C13.3444 3.74687 13.6737 3.97698 14.012 4.25283L16.9733 3.07483L19 6.46528L16.4115 8.36106C16.4709 8.5792 16.5042 8.77906 16.5114 8.96061C16.5187 9.14357 16.5223 9.32337 16.5223 9.5C16.5223 9.66396 16.5151 9.83672 16.5006 10.0183C16.4868 10.2005 16.4549 10.4208 16.4049 10.6791L18.9522 12.5347L16.9255 15.9653L14.012 14.7472C13.6737 15.023 13.3332 15.2598 12.9905 15.4576C12.6471 15.6553 12.2903 15.8115 11.9201 15.9262L11.5267 19H7.47329ZM9.47066 12.1389C10.2285 12.1389 10.8707 11.8831 11.3974 11.3715C11.9241 10.8599 12.1874 10.2361 12.1874 9.5C12.1874 8.76393 11.9241 8.14009 11.3974 7.6285C10.8707 7.11691 10.2285 6.86111 9.47066 6.86111C8.70851 6.86111 8.06518 7.11691 7.54067 7.6285C7.01615 8.14009 6.75389 8.76393 6.75389 9.5C6.75389 10.2361 7.01615 10.8599 7.54067 11.3715C8.06518 11.8831 8.70851 12.1389 9.47066 12.1389Z" fill="#AFAFAF"/>
</svg>
