<svg width="60" height="60" viewBox="0 0 60 60" fill="none" xmlns="http://www.w3.org/2000/svg">
<g id="Frame 15069">
<g id="Vector">
<path d="M30 56.25C23.0381 56.25 16.3613 53.4844 11.4384 48.5616C6.51562 43.6387 3.75 36.9619 3.75 30C3.75 23.0381 6.51562 16.3613 11.4384 11.4384C16.3613 6.51562 23.0381 3.75 30 3.75C36.9619 3.75 43.6387 6.51562 48.5616 11.4384C53.4844 16.3613 56.25 23.0381 56.25 30C56.25 36.9619 53.4844 43.6387 48.5616 48.5616C43.6387 53.4844 36.9619 56.25 30 56.25ZM30 60C37.9565 60 45.5871 56.8393 51.2132 51.2132C56.8393 45.5871 60 37.9565 60 30C60 22.0435 56.8393 14.4129 51.2132 8.7868C45.5871 3.16071 37.9565 0 30 0C22.0435 0 14.4129 3.16071 8.7868 8.7868C3.16071 14.4129 0 22.0435 0 30C0 37.9565 3.16071 45.5871 8.7868 51.2132C14.4129 56.8393 22.0435 60 30 60Z" fill="#00365C"/>
<path d="M30 56.25C23.0381 56.25 16.3613 53.4844 11.4384 48.5616C6.51562 43.6387 3.75 36.9619 3.75 30C3.75 23.0381 6.51562 16.3613 11.4384 11.4384C16.3613 6.51562 23.0381 3.75 30 3.75C36.9619 3.75 43.6387 6.51562 48.5616 11.4384C53.4844 16.3613 56.25 23.0381 56.25 30C56.25 36.9619 53.4844 43.6387 48.5616 48.5616C43.6387 53.4844 36.9619 56.25 30 56.25Z" fill="#00365C"/>
</g>
<path id="Vector_2" d="M15 21.111C15 20.3447 15.575 19.7224 16.285 19.7224H20.7267C21.6083 19.6971 22.3867 19.0907 22.6867 18.1945L22.7367 18.0362L22.9283 17.4171C23.045 17.0371 23.1467 16.7046 23.29 16.4085C23.8533 15.2384 24.8967 14.4262 26.1017 14.2188C26.4083 14.1665 26.7317 14.1665 27.1017 14.1665H32.8983C33.27 14.1665 33.5933 14.1665 33.8983 14.2188C35.1033 14.4262 36.1483 15.2384 36.71 16.4085C36.8533 16.7046 36.955 17.0355 37.0733 17.4171L37.2633 18.0362L37.3133 18.1945C37.6133 19.0907 38.5467 19.6987 39.43 19.7224H43.7133C44.425 19.7224 45 20.3447 45 21.111C45 21.8773 44.425 22.4996 43.715 22.4996H16.2833C15.575 22.4996 15 21.8773 15 21.111Z" fill="white"/>
<path id="Vector_3" fill-rule="evenodd" clip-rule="evenodd" d="M28.9937 43.6663H30.3404C34.9787 43.6663 37.297 43.6663 38.807 42.2635C40.3137 40.8607 40.467 38.5601 40.7754 33.9589L41.2204 27.3279C41.387 24.831 41.4704 23.5818 40.7154 22.7917C39.9587 22 38.682 22 36.127 22H23.207C20.652 22 19.3737 22 18.6187 22.7917C17.862 23.5833 17.9454 24.831 18.1137 27.3279L18.5587 33.9589C18.867 38.5601 19.0204 40.8623 20.5287 42.2635C22.037 43.6663 24.3554 43.6663 28.9937 43.6663ZM26.7437 28.1323C26.677 27.4451 26.0637 26.9448 25.377 27.0128C24.6887 27.0809 24.1887 27.6937 24.257 28.3808L25.0904 36.7139C25.157 37.4011 25.7704 37.9014 26.457 37.8333C27.1454 37.7653 27.6454 37.1525 27.577 36.4653L26.7437 28.1323ZM33.9587 27.0128C34.6454 27.0809 35.147 27.6937 35.077 28.3808L34.2437 36.7139C34.177 37.4011 33.562 37.9014 32.877 37.8333C32.1887 37.7653 31.6887 37.1525 31.757 36.4653L32.5904 28.1323C32.657 27.4451 33.2737 26.9448 33.9587 27.0128Z" fill="white"/>
</g>
</svg>
